<svg xmlns="http://www.w3.org/2000/svg" xmlns:xlink="http://www.w3.org/1999/xlink" width="500" zoomAndPan="magnify" viewBox="0 0 375 374.999991" height="500" preserveAspectRatio="xMidYMid meet" version="1.0"><defs><clipPath id="ebb46f5445"><path d="M 37.597656 64.949219 L 337.425781 64.949219 L 337.425781 310.046875 L 37.597656 310.046875 Z M 37.597656 64.949219 " clip-rule="nonzero"/></clipPath></defs><g clip-path="url(#ebb46f5445)"><path fill="#112d4e" d="M 327.679688 132.800781 C 327.332031 164.375 327.789062 273.632812 327.679688 297.398438 C 327.679688 298.304688 325.175781 300.367188 322.8125 300.367188 L 51.300781 300.367188 C 49.464844 300.367188 47.367188 298.773438 47.355469 297.382812 C 47.226562 268.636719 47.386719 158.792969 47.355469 132.851562 C 47.351562 129.5625 47.289062 127.304688 50.488281 127.292969 C 52.664062 127.285156 321.015625 127.121094 323.824219 127.292969 C 326.96875 127.488281 327.921875 129.605469 327.679688 132.800781 Z M 65.261719 80.242188 C 65.261719 77.148438 67.777344 74.628906 70.863281 74.628906 L 126.613281 74.621094 C 143.726562 75.871094 156.125 87.308594 163.527344 94.144531 C 168.144531 98.402344 170.679688 100.742188 174.003906 100.742188 C 175.535156 100.730469 303.171875 100.742188 303.171875 100.742188 C 306.257812 100.742188 308.777344 103.257812 308.777344 106.351562 L 308.777344 117.636719 C 291.761719 117.652344 94.074219 117.644531 65.261719 117.628906 Z M 337.355469 133.054688 C 337.824219 127.105469 335.785156 123.539062 333.992188 121.597656 C 332.308594 119.777344 329.183594 117.613281 323.53125 117.613281 C 323.152344 117.617188 321.429688 117.621094 318.453125 117.628906 L 318.453125 106.351562 C 318.453125 97.921875 311.597656 91.0625 303.171875 91.0625 C 303.171875 91.0625 178.261719 91.046875 174.714844 91.058594 C 173.726562 90.386719 171.734375 88.546875 170.097656 87.042969 C 161.761719 79.34375 147.816406 66.460938 126.972656 64.949219 L 70.863281 64.949219 C 62.433594 64.949219 55.582031 71.808594 55.582031 80.242188 L 55.582031 117.621094 C 52.617188 117.617188 50.8125 117.617188 50.410156 117.613281 C 45.765625 117.613281 36.667969 117.78125 37.675781 132.871094 C 37.644531 160.109375 37.542969 268.664062 37.675781 297.4375 C 37.714844 304.15625 44.078125 310.046875 51.300781 310.046875 L 322.808594 310.046875 C 329.664062 310.046875 337.34375 304.644531 337.359375 297.433594 C 337.476562 273.65625 337.015625 164.410156 337.355469 133.054688 " fill-opacity="1" fill-rule="nonzero"/></g></svg>