<svg xmlns="http://www.w3.org/2000/svg" xmlns:xlink="http://www.w3.org/1999/xlink" width="500" zoomAndPan="magnify" viewBox="0 0 375 374.999991" height="500" preserveAspectRatio="xMidYMid meet" version="1.0"><defs><clipPath id="18bfd43f7d"><path d="M 37.597656 64.949219 L 337.425781 64.949219 L 337.425781 310.199219 L 37.597656 310.199219 Z M 37.597656 64.949219 " clip-rule="nonzero"/></clipPath></defs><g clip-path="url(#18bfd43f7d)"><path fill="#000000" d="M 327.679688 132.839844 C 327.332031 164.4375 327.789062 273.765625 327.679688 297.542969 C 327.679688 298.449219 325.175781 300.511719 322.8125 300.511719 L 51.300781 300.511719 C 49.464844 300.511719 47.367188 298.917969 47.355469 297.527344 C 47.226562 268.765625 47.386719 158.851562 47.355469 132.894531 C 47.351562 129.601562 47.289062 127.34375 50.488281 127.332031 C 52.664062 127.324219 321.015625 127.160156 323.824219 127.332031 C 326.96875 127.527344 327.921875 129.648438 327.679688 132.839844 Z M 65.261719 80.25 C 65.261719 77.152344 67.777344 74.636719 70.863281 74.636719 L 126.613281 74.625 C 143.726562 75.878906 156.125 87.324219 163.527344 94.164062 C 168.144531 98.421875 170.679688 100.765625 174.003906 100.765625 C 175.535156 100.753906 303.171875 100.765625 303.171875 100.765625 C 306.257812 100.765625 308.777344 103.28125 308.777344 106.378906 L 308.777344 117.667969 C 291.761719 117.683594 94.074219 117.675781 65.261719 117.660156 Z M 337.355469 133.097656 C 337.824219 127.144531 335.785156 123.574219 333.992188 121.632812 C 332.308594 119.8125 329.183594 117.644531 323.53125 117.644531 C 323.152344 117.648438 321.429688 117.652344 318.453125 117.660156 L 318.453125 106.378906 C 318.453125 97.941406 311.597656 91.078125 303.171875 91.078125 C 303.171875 91.078125 178.261719 91.0625 174.714844 91.074219 C 173.726562 90.402344 171.734375 88.5625 170.097656 87.054688 C 161.761719 79.351562 147.816406 66.460938 126.972656 64.949219 L 70.863281 64.949219 C 62.433594 64.949219 55.582031 71.8125 55.582031 80.25 L 55.582031 117.652344 C 52.617188 117.648438 50.8125 117.648438 50.410156 117.644531 C 45.765625 117.644531 36.667969 117.8125 37.675781 132.914062 C 37.644531 160.167969 37.542969 268.789062 37.675781 297.582031 C 37.714844 304.304688 44.078125 310.199219 51.300781 310.199219 L 322.808594 310.199219 C 329.664062 310.199219 337.34375 304.792969 337.359375 297.578125 C 337.476562 273.785156 337.015625 164.472656 337.355469 133.097656 " fill-opacity="1" fill-rule="nonzero"/></g></svg>